<svg width="24" height="24" viewBox="0 0 24 24" fill="none" xmlns="http://www.w3.org/2000/svg">
<g clip-path="url(#clip0_771_338)">
<path d="M13.5374 11.8277C13.5374 15.5984 10.5069 18.6552 6.76884 18.6552C3.03073 18.6552 0 15.5977 0 11.8277C0 8.05767 3.0305 5 6.76884 5C10.5072 5 13.5374 8.05698 13.5374 11.8277Z" fill="#EEF0DC"/>
<path d="M20.9629 11.8277C20.9629 15.377 19.4477 18.2554 17.5785 18.2554C15.7093 18.2554 14.1941 15.377 14.1941 11.8277C14.1941 8.27834 15.7091 5.3999 17.5783 5.3999C19.4475 5.3999 20.9627 8.27742 20.9627 11.8277" fill="#EEF0DC"/>
<path d="M24.0003 11.8277C24.0003 15.007 23.4674 17.586 22.8099 17.586C22.1525 17.586 21.6199 15.0077 21.6199 11.8277C21.6199 8.6477 22.1527 6.06946 22.8099 6.06946C23.4672 6.06946 24.0003 8.64747 24.0003 11.8277Z" fill="#EEF0DC"/>
</g>
<defs>
<clipPath id="clip0_771_338">
<rect width="24" height="24" fill="white"/>
</clipPath>
</defs>
</svg>
